<svg width="20" height="20" viewBox="0 0 20 20" fill="none" xmlns="http://www.w3.org/2000/svg">
<path fill-rule="evenodd" clip-rule="evenodd" d="M9.1665 6.66669C9.1665 6.20669 9.53984 5.83335 9.99984 5.83335C10.4598 5.83335 10.8332 6.20669 10.8332 6.66669C10.8332 7.12669 10.4598 7.50002 9.99984 7.50002C9.53984 7.50002 9.1665 7.12669 9.1665 6.66669ZM9.1665 9.16669C9.1665 8.70669 9.53984 8.33335 9.99984 8.33335C10.4598 8.33335 10.8332 8.70669 10.8332 9.16669V13.3334C10.8332 13.7934 10.4598 14.1667 9.99984 14.1667C9.53984 14.1667 9.1665 13.7934 9.1665 13.3334V9.16669ZM9.99984 16.6667C6.324 16.6667 3.33317 13.6759 3.33317 10C3.33317 6.32419 6.324 3.33335 9.99984 3.33335C13.6757 3.33335 16.6665 6.32419 16.6665 10C16.6665 13.6759 13.6757 16.6667 9.99984 16.6667M9.99984 1.66669C5.39734 1.66669 1.6665 5.39752 1.6665 10C1.6665 14.6025 5.39734 18.3334 9.99984 18.3334C14.6015 18.3334 18.3332 14.6025 18.3332 10C18.3332 5.39752 14.6015 1.66669 9.99984 1.66669" fill="#94CBFF"/>
</svg>
