<svg width="104" height="104" viewBox="0 0 104 104" fill="none" xmlns="http://www.w3.org/2000/svg">
<path d="M8.20946 56.2741C-2.26479 36.0536 -3.54146 24.5405 9.21171 12.0247C11.53 9.7495 14.2484 7.89652 17.1132 6.36553C34.5473 -2.95156 42.8688 -1.94233 53.4365 8.74664C66.5932 22.9055 73.7107 31.2987 89.2872 41.204C99.1842 47.9837 104.357 52.8889 103.981 63.4765C103.802 68.511 101.926 73.3386 99.3004 77.6378C89.7423 93.2865 79.0033 98.97 57.127 103.458C26.4384 106.969 20.2916 93.2131 13.0283 68.153C11.8377 64.0452 10.1766 60.0716 8.20946 56.2741Z" fill="#FFD6D9"/>
<path fill-rule="evenodd" clip-rule="evenodd" d="M67.9608 25.0868L54.8545 38.1931L54.2385 45.0904L61.1848 44.4581L74.2515 31.3774L67.9608 25.0868ZM81.9212 23.7008L75.6328 17.4148L71.0875 21.9601L77.3758 28.2508L81.9212 23.7008ZM51.8795 49.9904C51.8072 49.9974 51.7372 49.9998 51.6672 49.9998C51.0512 49.9998 50.4562 49.7571 50.0175 49.3161C49.5275 48.8261 49.2802 48.1448 49.3432 47.4564L50.2275 37.7241C50.3255 36.6578 50.7968 35.6521 51.5552 34.8938L72.5458 13.9008C74.1838 12.2581 77.1565 12.3398 78.8832 14.0641L85.2718 20.4528H85.2742C87.0615 22.2424 87.1315 25.0821 85.4328 26.7854L64.4398 47.7784C63.6815 48.5391 62.6782 49.0081 61.6095 49.1061L51.8795 49.9904ZM51.6667 54.6667H84.3334C85.6167 54.6667 86.6667 55.7167 86.6667 57C86.6667 58.2833 85.6167 59.3333 84.3334 59.3333H51.6667C50.3834 59.3333 49.3334 58.2833 49.3334 57C49.3334 55.7167 50.3834 54.6667 51.6667 54.6667Z" fill="#FF3D71"/>
</svg>
