<svg width="104" height="104" viewBox="0 0 104 104" fill="none" xmlns="http://www.w3.org/2000/svg">
<path d="M8.20946 56.2741C-2.26479 36.0536 -3.54146 24.5405 9.21171 12.0247C11.53 9.7495 14.2484 7.89652 17.1132 6.36553C34.5473 -2.95156 42.8688 -1.94233 53.4365 8.74664C66.5932 22.9055 73.7107 31.2987 89.2872 41.204C99.1842 47.9837 104.357 52.8889 103.981 63.4765C103.802 68.511 101.926 73.3386 99.3004 77.6378C89.7423 93.2865 79.0033 98.97 57.127 103.458C26.4384 106.969 20.2916 93.2131 13.0283 68.153C11.8377 64.0452 10.1766 60.0716 8.20946 56.2741Z" fill="#D9E4FF"/>
<path fill-rule="evenodd" clip-rule="evenodd" d="M88.5831 40.8011C87.3628 40.3671 86.0328 41.0041 85.6058 42.2221C82.9738 49.6654 75.8968 54.6658 68.0008 54.6658C57.7085 54.6658 49.3341 46.2938 49.3341 35.9991C49.3341 28.1031 54.3345 21.0261 61.7778 18.3941C62.9935 17.9671 63.6305 16.6348 63.2011 15.4191C62.7718 14.2058 61.4395 13.5664 60.2238 13.9981C50.9185 17.2858 44.6675 26.1268 44.6675 35.9991C44.6675 48.8651 55.1348 59.3324 68.0008 59.3324C77.8731 59.3324 86.7141 53.0838 90.0041 43.7761C90.4335 42.5628 89.7988 41.2304 88.5831 40.8011ZM72.6668 31.3334V17.499C79.8091 18.5257 85.4744 24.1887 86.5011 31.3334H72.6668ZM70.3334 12.6667C69.0454 12.6667 68.0001 13.7097 68.0001 15V33.6667C68.0001 34.957 69.0454 36 70.3334 36H89.0001C90.2881 36 91.3335 34.957 91.3335 33.6667C91.3335 22.0864 81.9114 12.6667 70.3334 12.6667Z" fill="#3366FF"/>
</svg>
