<svg width="104" height="104" viewBox="0 0 104 104" fill="none" xmlns="http://www.w3.org/2000/svg">
<path d="M8.20946 56.2741C-2.26479 36.0536 -3.54146 24.5405 9.21171 12.0247C11.53 9.7495 14.2484 7.89652 17.1132 6.36553C34.5473 -2.95156 42.8688 -1.94233 53.4365 8.74664C66.5932 22.9055 73.7107 31.2987 89.2872 41.204C99.1842 47.9837 104.357 52.8889 103.981 63.4765C103.802 68.511 101.926 73.3386 99.3004 77.6378C89.7423 93.2865 79.0033 98.97 57.127 103.458C26.4384 106.969 20.2916 93.2131 13.0283 68.153C11.8377 64.0452 10.1766 60.0716 8.20946 56.2741Z" fill="#CCFCE3"/>
<path fill-rule="evenodd" clip-rule="evenodd" d="M56.3333 24.3333C56.3333 23.043 57.3787 22 58.6667 22C59.9547 22 61 23.043 61 24.3333C61 25.6237 59.9547 26.6667 58.6667 26.6667C57.3787 26.6667 56.3333 25.6237 56.3333 24.3333ZM65.6667 24.3333C65.6667 23.043 66.712 22 68 22C69.288 22 70.3333 23.043 70.3333 24.3333C70.3333 25.6237 69.288 26.6667 68 26.6667C66.712 26.6667 65.6667 25.6237 65.6667 24.3333ZM51.6667 29V22C51.6667 20.712 52.7143 19.6667 54 19.6667H82C83.2857 19.6667 84.3333 20.712 84.3333 22V29H51.6667ZM84.3333 50C84.3333 51.288 83.2857 52.3333 82 52.3333H54C52.7143 52.3333 51.6667 51.288 51.6667 50V33.6667H84.3333V50ZM82 15H54C50.1407 15 47 18.1407 47 22V29V33.6667V50C47 53.8593 50.1407 57 54 57H82C85.8593 57 89 53.8593 89 50V33.6667V29V22C89 18.1407 85.8593 15 82 15V15Z" fill="#00D68F"/>
</svg>
